<svg xmlns="http://www.w3.org/2000/svg" viewBox="0 0 130 30">
<path fill="#fff" d="M25.93,14.78A5.79,5.79,0,0,1,28.7,9.92,6,6,0,0,0,24,7.39c-2-.2-3.88,1.18-4.88,1.18s-2.56-1.16-4.23-1.12a6.21,6.21,0,0,0-5.24,3.19c-2.26,3.93-.57,9.69,1.6,12.86,1.09,1.55,2.35,3.29,4,3.23s2.23-1,4.19-1,2.51,1,4.21,1,2.84-1.56,3.89-3.13A13,13,0,0,0,29.31,20,5.62,5.62,0,0,1,25.93,14.78Zm-3.2-9.47A5.67,5.67,0,0,0,24,1.22a5.78,5.78,0,0,0-3.76,1.94,5.49,5.49,0,0,0-1.3,3.94A4.85,4.85,0,0,0,22.73,5.31ZM51.63,25.7H49.54l-1.15-3.61h-4L43.3,25.7h-2l4-12.29h2.45ZM48,20.58l-1-3.21c-.11-.33-.31-1.1-.62-2.32h0c-.12.52-.31,1.3-.58,2.32l-1,3.21Zm13.81.58a5,5,0,0,1-1.22,3.57,3.61,3.61,0,0,1-2.72,1.17,2.73,2.73,0,0,1-2.52-1.26h0v4.67h-2V19.76c0-1,0-1.92-.08-2.92H55l.11,1.4h0a3.5,3.5,0,0,1,4.86-1,3.36,3.36,0,0,1,.75.66A4.84,4.84,0,0,1,61.81,21.16Zm-2,.07a3.65,3.65,0,0,0-.58-2.13,2,2,0,0,0-1.71-.88,2.08,2.08,0,0,0-1.33.49A2.23,2.23,0,0,0,55.41,20a3.1,3.1,0,0,0-.09.61v1.47a2.45,2.45,0,0,0,.59,1.64,2.16,2.16,0,0,0,3.27-.19,3.76,3.76,0,0,0,.62-2.3ZM72,21.16a5,5,0,0,1-1.23,3.57,3.54,3.54,0,0,1-2.71,1.17,2.71,2.71,0,0,1-2.52-1.26h0v4.67h-2V19.76c0-1,0-1.92-.07-2.92H65.2l.11,1.4h0a3.5,3.5,0,0,1,4.84-1.09,3.58,3.58,0,0,1,.85.75A4.85,4.85,0,0,1,72,21.16Zm-2,.07a3.65,3.65,0,0,0-.58-2.13,2.07,2.07,0,0,0-2.9-.46l-.1.07A2.2,2.2,0,0,0,65.61,20a2.51,2.51,0,0,0-.1.61v1.47a2.36,2.36,0,0,0,.6,1.64,2.16,2.16,0,0,0,3.27-.19A3.83,3.83,0,0,0,70,21.23Zm13.41,1a3.29,3.29,0,0,1-1.1,2.56A4.79,4.79,0,0,1,79,25.88a5.84,5.84,0,0,1-3.19-.76l.46-1.64a5.38,5.38,0,0,0,2.84.78,2.77,2.77,0,0,0,1.74-.5,1.62,1.62,0,0,0,.62-1.34A1.7,1.7,0,0,0,81,21.16a4.83,4.83,0,0,0-1.7-.95c-2.15-.81-3.23-2-3.23-3.53a3.12,3.12,0,0,1,1.13-2.48,4.41,4.41,0,0,1,3-1,6.11,6.11,0,0,1,2.79.58l-.49,1.61a4.8,4.8,0,0,0-2.35-.57,2.33,2.33,0,0,0-1.62.51,1.53,1.53,0,0,0,.07,2.32,6.42,6.42,0,0,0,1.79,1,6,6,0,0,1,2.33,1.49A3.09,3.09,0,0,1,83.41,22.25Zm6.51-3.93H87.75v4.3c0,1.09.38,1.64,1.15,1.64a3.22,3.22,0,0,0,.87-.09l.06,1.5a4.48,4.48,0,0,1-1.54.21,2.34,2.34,0,0,1-1.82-.71,3.47,3.47,0,0,1-.66-2.39V18.31H84.52V16.84h1.29V15.21l1.94-.58v2.21h2.17Zm9.79,2.88a4.84,4.84,0,0,1-1.17,3.35A4.14,4.14,0,0,1,95.3,25.9a4,4,0,0,1-3.11-1.29A4.74,4.74,0,0,1,91,21.34,4.83,4.83,0,0,1,92.22,18a4.13,4.13,0,0,1,3.22-1.31A4,4,0,0,1,98.58,18,4.64,4.64,0,0,1,99.71,21.2Zm-2,.06a4,4,0,0,0-.53-2.1,2,2,0,0,0-1.77-1.06,2,2,0,0,0-1.8,1.06A4,4,0,0,0,93,21.3a3.87,3.87,0,0,0,.53,2.1,2,2,0,0,0,3.55,0,3.88,3.88,0,0,0,.59-2.12Zm8.4-2.69a3.18,3.18,0,0,0-.62-.05,1.84,1.84,0,0,0-1.6.78,2.94,2.94,0,0,0-.49,1.75V25.7h-2V19.63c0-1,0-1.95-.08-2.79H103l.07,1.69h0a3.05,3.05,0,0,1,1-1.4,2.35,2.35,0,0,1,1.42-.47,4,4,0,0,1,.49,0Zm8.81,2.28a4.4,4.4,0,0,1-.07.89h-5.91a2.55,2.55,0,0,0,.86,2,2.92,2.92,0,0,0,1.93.62,6.47,6.47,0,0,0,2.39-.42l.31,1.37a7.5,7.5,0,0,1-3,.55,4.29,4.29,0,0,1-3.24-1.22A4.5,4.5,0,0,1,107,21.4a5.11,5.11,0,0,1,1.1-3.34,3.77,3.77,0,0,1,3.1-1.42,3.3,3.3,0,0,1,2.9,1.42A4.78,4.78,0,0,1,114.92,20.85ZM113,20.34a2.58,2.58,0,0,0-.38-1.51,1.7,1.7,0,0,0-1.57-.83,1.85,1.85,0,0,0-1.57.81,3.06,3.06,0,0,0-.58,1.53ZM47.39,6.54a3,3,0,0,1-1,2.46,3.88,3.88,0,0,1-2.57.76,11.11,11.11,0,0,1-1.41-.08V3.74a11.48,11.48,0,0,1,1.66-.12,3.61,3.61,0,0,1,2.4.69A2.79,2.79,0,0,1,47.39,6.54Zm-1,0a2.22,2.22,0,0,0-.56-1.63,2.24,2.24,0,0,0-1.64-.56,5.12,5.12,0,0,0-.78.06V9a3.64,3.64,0,0,0,.66,0,2.3,2.3,0,0,0,1.71-.62,2.44,2.44,0,0,0,.59-1.81Zm6.41,1a2.43,2.43,0,0,1-.57,1.65,2,2,0,0,1-1.6.66,2,2,0,0,1-1.53-.63,2.36,2.36,0,0,1-.56-1.61,2.35,2.35,0,0,1,.58-1.66,2.23,2.23,0,0,1,3.13,0A2.26,2.26,0,0,1,52.8,7.49Zm-1,0a2,2,0,0,0-.26-1A1,1,0,0,0,50.67,6a1,1,0,0,0-.89.52,2.05,2.05,0,0,0,0,2,1,1,0,0,0,1.75,0,1.91,1.91,0,0,0,.27-1Zm8.26-2.14L58.7,9.7h-.89l-.56-1.89a13.64,13.64,0,0,1-.35-1.4h0a11.46,11.46,0,0,1-.35,1.4L56,9.7H55L53.75,5.35h1l.5,2.07c.12.49.21.95.29,1.4h0c.1-.47.22-.93.36-1.39l.62-2.08h.79l.59,2c.14.5.26,1,.35,1.44h0q.11-.67.3-1.44l.53-2Zm5,4.35h-1V7.21c0-.77-.29-1.15-.88-1.15a.85.85,0,0,0-.7.31,1.1,1.1,0,0,0-.27.75V9.7h-1V5.35h.85V6h0a1.44,1.44,0,0,1,.51-.53,1.65,1.65,0,0,1,.87-.24,1.39,1.39,0,0,1,1,.39A1.91,1.91,0,0,1,65,7.09Zm2.67,0h-1V3.35h1Zm5.7-2.21a2.34,2.34,0,0,1-.58,1.65,2.21,2.21,0,0,1-3.12,0,2.33,2.33,0,0,1-.57-1.61,2.4,2.4,0,0,1,.59-1.66,2.22,2.22,0,0,1,3.12,0A2.31,2.31,0,0,1,73.45,7.49Zm-1,0a1.85,1.85,0,0,0-.26-1A.93.93,0,0,0,71.32,6a1,1,0,0,0-.89.52,1.85,1.85,0,0,0-.26,1,1.85,1.85,0,0,0,.26,1,1,1,0,0,0,.88.52.93.93,0,0,0,.86-.53,1.91,1.91,0,0,0,.27-1ZM78.13,9.7h-.87l-.07-.5h0a1.48,1.48,0,0,1-1.27.6,1.3,1.3,0,0,1-1-.39,1.23,1.23,0,0,1-.34-.89,1.35,1.35,0,0,1,.67-1.22,3.47,3.47,0,0,1,1.87-.41V6.81c0-.57-.3-.86-.9-.86a2.09,2.09,0,0,0-1.14.32l-.19-.63a2.78,2.78,0,0,1,1.49-.38q1.71,0,1.71,1.8v1.6A7.24,7.24,0,0,0,78.13,9.7Zm-1-1.49V7.53c-1.07,0-1.6.28-1.6.88a.65.65,0,0,0,.18.51.64.64,0,0,0,.47.17,1,1,0,0,0,.6-.2.81.81,0,0,0,.33-.51A1,1,0,0,0,77.13,8.21Zm6.5,1.49h-.86V9h0a1.42,1.42,0,0,1-1.4.8A1.62,1.62,0,0,1,80,9.18a2.37,2.37,0,0,1-.52-1.6A2.52,2.52,0,0,1,80,5.87a1.72,1.72,0,0,1,1.35-.61,1.29,1.29,0,0,1,1.22.59h0V3.35h1V8.53Q83.6,9.16,83.63,9.7Zm-1-1.83V7.14a1.5,1.5,0,0,0,0-.3,1.06,1.06,0,0,0-.35-.59A.92.92,0,0,0,81.61,6a1,1,0,0,0-.86.43,2,2,0,0,0-.31,1.1,1.68,1.68,0,0,0,.3,1,1,1,0,0,0,.85.43.9.9,0,0,0,.76-.36A1.14,1.14,0,0,0,82.63,7.87Zm9.28-.38a2.43,2.43,0,0,1-.57,1.65,2,2,0,0,1-1.6.66,2,2,0,0,1-1.52-.63,2.33,2.33,0,0,1-.57-1.61,2.35,2.35,0,0,1,.58-1.66,2,2,0,0,1,1.59-.64,2,2,0,0,1,1.54.64A2.26,2.26,0,0,1,91.91,7.49Zm-1,0a2,2,0,0,0-.26-1A1,1,0,0,0,89.78,6a1,1,0,0,0-.89.52,2.05,2.05,0,0,0,0,2,1,1,0,0,0,1.75,0,1.91,1.91,0,0,0,.27-1ZM97.12,9.7h-1V7.21c0-.77-.29-1.15-.88-1.15a.88.88,0,0,0-.7.31,1.2,1.2,0,0,0-.26.75V9.7h-1V5.35h.85V6h0a1.44,1.44,0,0,1,.51-.53,1.65,1.65,0,0,1,.87-.24,1.39,1.39,0,0,1,1,.39A1.91,1.91,0,0,1,97,7.09Zm6.51-3.63h-1.06V8.19c0,.54.19.81.56.81a1.58,1.58,0,0,0,.43-.05v.73a2.13,2.13,0,0,1-.75.11,1.15,1.15,0,0,1-.9-.35,1.69,1.69,0,0,1-.32-1.17V6.07H101V5.35h.64v-.8l1-.29V5.35h1.06v.72Zm5.13,3.63h-1V7.23c0-.78-.29-1.17-.88-1.17a.92.92,0,0,0-.92.67,1,1,0,0,0,0,.35V9.7h-1V3.35h1V6h0a1.47,1.47,0,0,1,1.31-.71,1.39,1.39,0,0,1,1,.39,2,2,0,0,1,.49,1.46Zm5.29-2.38a3.23,3.23,0,0,1,0,.44h-2.9a1.23,1.23,0,0,0,.42,1,1.39,1.39,0,0,0,1,.31,3.11,3.11,0,0,0,1.17-.21l.15.68a3.81,3.81,0,0,1-1.46.26,2.12,2.12,0,0,1-1.59-.59,2.21,2.21,0,0,1-.58-1.6A2.5,2.5,0,0,1,110.71,6a1.87,1.87,0,0,1,1.52-.7,1.62,1.62,0,0,1,1.43.7A2.3,2.3,0,0,1,114.05,7.32Zm-.93-.25a1.21,1.21,0,0,0-.19-.74.84.84,0,0,0-.77-.41.93.93,0,0,0-.77.4,1.47,1.47,0,0,0-.28.75Z"/></svg>
