<svg xmlns="http://www.w3.org/2000/svg" viewBox="0 0 130 30">
<path fill="#fff" d="M45.4,6.3c0,0.8-0.2,1.5-0.7,2c-0.6,0.6-1.3,0.9-2.2,0.9c-0.9,0-1.6-0.3-2.2-0.9c-0.6-0.6-0.9-1.3-0.9-2.2
	c0-0.9,0.3-1.6,0.9-2.2c0.6-0.6,1.3-0.9,2.2-0.9c0.4,0,0.8,0.1,1.2,0.2c0.4,0.2,0.7,0.4,0.9,0.7l-0.5,0.5c-0.4-0.5-0.9-0.7-1.6-0.7
	c-0.6,0-1.2,0.2-1.6,0.7c-0.5,0.4-0.7,1-0.7,1.7c0,0.7,0.2,1.3,0.7,1.7c0.5,0.4,1,0.7,1.6,0.7c0.7,0,1.2-0.2,1.7-0.7
	c0.3-0.3,0.5-0.7,0.5-1.2h-2.2V5.8h2.9C45.4,6,45.4,6.1,45.4,6.3z M50,3.8h-2.7v1.9h2.5v0.7h-2.5v1.9H50V9h-3.5v-6H50V3.8z M53.3,9
	h-0.8V3.8h-1.7V3.1h4.1v0.7h-1.7V9z M57.9,9v-6h0.8v6H57.9z M62.1,9h-0.8V3.8h-1.7V3.1h4.1v0.7h-1.7V9z M71.6,8.2
	c-0.6,0.6-1.3,0.9-2.2,0.9c-0.9,0-1.6-0.3-2.2-0.9c-0.6-0.6-0.9-1.3-0.9-2.2c0-0.9,0.3-1.6,0.9-2.2c0.6-0.6,1.3-0.9,2.2-0.9
	c0.9,0,1.6,0.3,2.2,0.9c0.6,0.6,0.9,1.3,0.9,2.2C72.5,6.9,72.2,7.6,71.6,8.2z M67.8,7.7c0.4,0.4,1,0.7,1.6,0.7
	c0.6,0,1.2-0.2,1.6-0.7c0.4-0.4,0.7-1,0.7-1.7c0-0.7-0.2-1.3-0.7-1.7c-0.4-0.4-1-0.7-1.6-0.7c-0.6,0-1.2,0.2-1.6,0.7
	c-0.4,0.4-0.7,1-0.7,1.7C67.1,6.7,67.4,7.3,67.8,7.7z M73.6,9v-6h0.9l2.9,4.6h0l0-1.1V3.1h0.8v6h-0.8l-3.1-4.9h0l0,1.1V9H73.6z
	 M66.2,16.7c-2.4,0-4.3,1.8-4.3,4.2c0,2.4,1.9,4.2,4.3,4.2c2.4,0,4.3-1.8,4.3-4.2C70.4,18.5,68.5,16.7,66.2,16.7z M66.2,23.5
	c-1.3,0-2.4-1.1-2.4-2.6c0-1.5,1.1-2.6,2.4-2.6c1.3,0,2.4,1,2.4,2.6C68.6,22.4,67.4,23.5,66.2,23.5z M56.8,16.7
	c-2.4,0-4.3,1.8-4.3,4.2c0,2.4,1.9,4.2,4.3,4.2c2.4,0,4.3-1.8,4.3-4.2C61.1,18.5,59.2,16.7,56.8,16.7z M56.8,23.5
	c-1.3,0-2.4-1.1-2.4-2.6c0-1.5,1.1-2.6,2.4-2.6c1.3,0,2.4,1,2.4,2.6C59.2,22.4,58.1,23.5,56.8,23.5z M45.7,18v1.8H50
	c-0.1,1-0.5,1.7-1,2.3c-0.6,0.6-1.6,1.3-3.3,1.3c-2.7,0-4.7-2.1-4.7-4.8s2.1-4.8,4.7-4.8c1.4,0,2.5,0.6,3.3,1.3l1.3-1.3
	c-1.1-1-2.5-1.8-4.5-1.8C42.1,12,39,15,39,18.6c0,3.6,3.1,6.6,6.7,6.6c2,0,3.5-0.6,4.6-1.8c1.2-1.2,1.6-2.8,1.6-4.2
	c0-0.4,0-0.8-0.1-1.1H45.7z M91.1,19.4c-0.4-0.9-1.4-2.7-3.7-2.7c-2.2,0-4,1.7-4,4.2c0,2.4,1.8,4.2,4.2,4.2c2,0,3.1-1.2,3.6-1.9
	l-1.5-1c-0.5,0.7-1.1,1.2-2.1,1.2c-1,0-1.6-0.4-2.1-1.3l5.7-2.3L91.1,19.4z M85.3,20.8c0-1.6,1.3-2.5,2.2-2.5c0.7,0,1.4,0.4,1.6,0.9
	L85.3,20.8z M80.7,24.9h1.9V12.5h-1.9V24.9z M77.6,17.6L77.6,17.6c-0.5-0.5-1.3-0.9-2.3-0.9c-2.1,0-4.1,1.9-4.1,4.2
	c0,2.4,2,4.2,4.1,4.2c1,0,1.8-0.4,2.2-1h0.1v0.6c0,1.6-0.9,2.5-2.3,2.5c-1.1,0-1.9-0.8-2.1-1.5l-1.6,0.7c0.5,1.1,1.7,2.5,3.8,2.5
	c2.2,0,4.1-1.3,4.1-4.4V17h-1.8V17.6z M75.5,23.5c-1.3,0-2.4-1.1-2.4-2.5c0-1.5,1.1-2.6,2.4-2.6c1.3,0,2.3,1.1,2.3,2.6
	C77.7,22.4,76.7,23.5,75.5,23.5z M99.9,12.5h-4.5v12.4h1.9v-4.7h2.6c2.1,0,4.1-1.5,4.1-3.9C104,14,102,12.5,99.9,12.5z M100,18.5
	h-2.7v-4.3h2.7c1.4,0,2.2,1.1,2.2,2.1C102.2,17.3,101.4,18.5,100,18.5z M111.5,16.7c-1.4,0-2.8,0.6-3.3,1.9l1.7,0.7
	c0.4-0.7,1-0.9,1.7-0.9c1,0,2,0.6,2,1.6v0.1c-0.3-0.2-1.1-0.5-2-0.5c-1.8,0-3.6,1-3.6,2.8c0,1.7,1.5,2.7,3.1,2.7
	c1.3,0,2-0.6,2.4-1.2h0.1v1h1.8v-4.8C115.3,17.9,113.7,16.7,111.5,16.7z M111.3,23.5c-0.6,0-1.5-0.3-1.5-1.1c0-1,1.1-1.3,2-1.3
	c0.8,0,1.2,0.2,1.7,0.4C113.4,22.7,112.4,23.5,111.3,23.5z M121.9,17l-2.1,5.4h-0.1l-2.2-5.4h-2l3.3,7.5l-1.9,4.2h2L124,17H121.9z
	 M105.1,24.9h1.9V12.5h-1.9V24.9z M21,14l3.2-3.2c-1.7-1-12.6-7-13.3-7.4c-0.1-0.1-0.3-0.1-0.4-0.2L21,14z M9.6,3.3
	C9.3,3.5,9.1,3.9,9.1,4.5c0,1.3,0,18.8,0,19.9c0,0.6,0.2,1,0.5,1.2l10.9-11.2L9.6,3.3z M21,15L10.5,25.7c0.1,0,0.2-0.1,0.3-0.1
	c0.7-0.4,8-4.5,13.2-7.4L21,15z M29.2,13.6c-0.3-0.2-2.1-1.2-4.4-2.5l-3.3,3.4l3.2,3.3c2.5-1.4,4.3-2.4,4.5-2.5
	C29.7,15,30.3,14.2,29.2,13.6z"/>
</svg>
