<svg xmlns="http://www.w3.org/2000/svg" viewBox="0 0 36 36">
  <circle cx="18" cy="18" r="18"  fill="#fff"/>
  <path d="M27.41,13.14a8.39,8.39,0,0,1-2.07.53,3.91,3.91,0,0,0,1.68-2s0-.1-.09-.08a8.06,8.06,0,0,1-2.36.87,3.95,3.95,0,0,0-6.81,2.65,3.65,3.65,0,0,0,.1.88,11.24,11.24,0,0,1-8.1-4s0,0,0,0a3.81,3.81,0,0,0-.52,1.92,3.88,3.88,0,0,0,1.68,3.18,0,0,0,0,1,0,0,3.93,3.93,0,0,1-1.67-.46s0,0,0,0a5.21,5.21,0,0,0,.27,1.41,4,4,0,0,0,2.89,2.4,4,4,0,0,1-1,.14,3.35,3.35,0,0,1-.71-.07s0,0,0,0a4,4,0,0,0,3.6,2.66s0,0,0,0a7.94,7.94,0,0,1-4.84,1.62c-.31,0-.62,0-.93-.05a11.34,11.34,0,0,0,6,1.74,11,11,0,0,0,7.38-2.67,11.38,11.38,0,0,0,3.56-6,11.06,11.06,0,0,0,.27-2.34c0-.17,0-.34,0-.5a7.88,7.88,0,0,0,1.85-1.84A.06.06,0,0,0,27.41,13.14Z" fill="#005abb" />
</svg>