<?xml version="1.0" encoding="UTF-8"?><!DOCTYPE svg PUBLIC "-//W3C//DTD SVG 1.1//EN" "http://www.w3.org/Graphics/SVG/1.1/DTD/svg11.dtd"><svg xmlns="http://www.w3.org/2000/svg"><symbol id="icon-button_logo" viewBox="0 0 34 20"><switch><g><title>button_logo</title><path fill="#FFF" d="M31.2 20h-28c-1.7 0-3-1.3-3-3V3c0-1.7 1.3-3 3-3h27.4C32.5 0 34 1.6 34 3.6c0 1.3-.8 2.5-1.9 3L34 16.8c.2 1.6-.9 3-2.5 3.1-.1.1-.2.1-.3.1zM27 6h-1c-1.1 0-2 .9-2 2v1h-8.3c-.8-2.8-3.8-4.4-6.5-3.5S4.8 9.2 5.6 12s3.8 4.4 6.5 3.5c1.7-.5 3-1.8 3.5-3.5H27V6zm-1 1c-.6 0-1 .4-1 1v2H12.1V8.3c0-.2-.1-.3-.2-.3h-.2l-3.6 2.3c-.1.1-.2.3-.1.4l.1.1 3.6 2.2c.1.1.3 0 .4-.1V11H26V7z"/></g></switch></symbol><symbol id="icon-checklist" viewBox="0 0 10 10">
  <path stroke="#fff" fill="none" stroke-linecap="square" stroke-width="2" d="M1,4,4,7,9,2"/>
</symbol><symbol id="icon-close" viewBox="0 0 24 24"><style>.st0{stroke:#fff;stroke-width:2;stroke-linecap:round;stroke-linejoin:round;stroke-miterlimit:10}</style><path class="st0" d="M4 4l16 16m0-16L4 20"/></symbol><symbol id="icon-collapse" viewBox="0 0 24 24"><style type="text/css">  
	.st0{opacity:0.5;fill:none;stroke:#2277E6;stroke-width:2;stroke-linecap:round;stroke-linejoin:round;stroke-miterlimit:10;}
</style><polyline class="st0" points="7 11 12 16 17 11 "/></symbol><symbol id="icon-contact" viewBox="0 0 24 24"><style>.st0{fill:none;stroke:#fff;stroke-width:2;stroke-linecap:round;stroke-linejoin:round;stroke-miterlimit:10}</style><path class="st0" d="M20 19H4c-1.1 0-2-.9-2-2V7c0-1.1.9-2 2-2h16c1.1 0 2 .9 2 2v10c0 1.1-.9 2-2 2z"/><path class="st0" d="M3 7l9 6 9-6"/></symbol><symbol id="icon-help" viewBox="0 0 24 24"><style type="text/css">  
	.st0{fill:none;stroke:#FFFFFF;stroke-width:2;stroke-miterlimit:10;}
	.st1{fill:none;stroke:#FFFFFF;stroke-width:2;stroke-linecap:round;stroke-linejoin:round;stroke-miterlimit:10;}
</style><circle class="st0" cx="12" cy="12" r="10"/><line class="st1" x1="12" y1="18" x2="12" y2="18"/><path class="st1" d="M9 10c0-1.7 1.3-3 3-3s3 1.3 3 3c0 2.6-3 2.6-3 5"/></symbol><symbol id="icon-hint" viewBox="0 0 18 18"><path class="st0" d="M9 18c5 0 9-4 9-9s-4-9-9-9-9 4-9 9 4 9 9 9zM7.8 3.9h2.3v2H7.8v-2zm0 10.1V8h2.3v6H7.8z"/></symbol><symbol id="icon-play" viewBox="0 0 120 120">
  <path d="M60,0A60,60,0,1,1,0,60,60,60,0,0,1,60,0Z" fill="aqua" opacity="0.1"/>
  <path d="M60,10A50,50,0,1,1,10,60,50,50,0,0,1,60,10Z" fill="#cff" opacity="0.2"/>
  <path d="M60,20A40,40,0,1,1,20,60,40,40,0,0,1,60,20Z" fill="#fff"/>
  <path d="M75,58.24l-22-13a2,2,0,0,0-3,1.76V73a2,2,0,0,0,3,1.77L75,61.77A2.05,2.05,0,0,0,75,58.24Z"/>
</symbol><symbol id="icon-x" viewBox="0 0 24 24"><style>.st0{stroke:#004896;stroke-width:2;stroke-linecap:round;stroke-linejoin:round;stroke-miterlimit:10}</style><path class="st0" d="M4 4l16 16m0-16L4 20"/></symbol></svg>