<svg xmlns="http://www.w3.org/2000/svg" viewBox="0 0 24 24">
  <path d="M12,9a3,3,0,1,0,3,3A3,3,0,0,0,12,9Zm2.74-4a7.55,7.55,0,0,1,2,1.12l2.64-.94a10.07,10.07,0,0,1,2.24,3.85l-2.15,1.83h0a7.14,7.14,0,0,1,0,2.26l2.14,1.81a9.91,9.91,0,0,1-2.22,3.87l-2.66-.95h0a7.76,7.76,0,0,1-2,1.12l-.51,2.76a10,10,0,0,1-4.46,0L9.26,19h0a7.55,7.55,0,0,1-1.95-1.12l-2.64.94A10.07,10.07,0,0,1,2.43,15l2.15-1.83h0a7.14,7.14,0,0,1,0-2.26L2.44,9.06A9.91,9.91,0,0,1,4.66,5.19l2.66.95h0A7.76,7.76,0,0,1,9.26,5l.51-2.76a10,10,0,0,1,4.46,0L14.74,5Z" fill="none" stroke="#000" stroke-linecap="round" stroke-linejoin="round" stroke-width="2"/>
</svg>
