<svg xmlns="http://www.w3.org/2000/svg" xmlns:xlink="http://www.w3.org/1999/xlink" viewBox="0 0 320 800">
  <defs>
    <radialGradient id="a" cx="320" cy="690" r="100" gradientUnits="userSpaceOnUse">
      <stop offset="0" stop-color="aqua" stop-opacity="0"/>
      <stop offset="1" stop-color="aqua"/>
    </radialGradient>
    <radialGradient id="b" r="50" xlink:href="#a"/>
    <radialGradient id="c" cx="5" cy="387" r="270" xlink:href="#a"/>
    <radialGradient id="d" cx="5" cy="387" r="175" xlink:href="#a"/>
  </defs>
  <path d="M220,690A100,100,0,0,0,320,790V590A100,100,0,0,0,220,690Z" opacity="0.12" fill="url(#a)"/>
  <path d="M270,690a50,50,0,0,0,50,50V640A50,50,0,0,0,270,690Z" opacity="0.12" fill="url(#b)"/>
  <path d="M7.64,120c-2.56,0-5.1,0-7.64.11v534.5c2.54.07,5.08.11,7.64.11C155.3,654.72,275,535,275,387.36S155.3,120,7.64,120Z" opacity="0.12" fill="url(#c)"/>
  <path d="M5,212.36c-1.67,0-3.34,0-5,.07V562.29c1.66.05,3.33.07,5,.07a175,175,0,0,0,0-350Z" opacity="0.12" fill="url(#d)"/>
  <path d="M80,454.19V367.86A11.53,11.53,0,0,0,68.89,356H65.72V332.22c0-30.1-27-53.86-59.53-53.86q-3.15,0-6.19.28v25.44a39.68,39.68,0,0,1,5.4-.38c18.25,0,32.54,11.88,32.54,27.72v23.77H0v33.57a17.62,17.62,0,0,1,6.19-1.1,16.26,16.26,0,0,1,16.67,16.63c0,5.55-3.18,10.3-5.56,13.47v19.8a5.42,5.42,0,0,1-5.56,5.54H2.22A5.74,5.74,0,0,1,0,442.67v24.19H67.31A13,13,0,0,0,80,454.19Z" fill="aqua" opacity="0.2"/>
</svg>
