<?xml version="1.0" encoding="utf-8"?>
<!-- Generator: Adobe Illustrator 21.1.0, SVG Export Plug-In . SVG Version: 6.00 Build 0)  -->
<svg version="1.1" id="Layer_1" xmlns="http://www.w3.org/2000/svg" xmlns:xlink="http://www.w3.org/1999/xlink" x="0px" y="0px"
	 viewBox="0 0 177 177" style="enable-background:new 0 0 177 177;" xml:space="preserve">
<style type="text/css">
	.st0{fill:none;stroke:#FFFFFF;stroke-width:2;stroke-linecap:round;stroke-linejoin:round;stroke-miterlimit:10;}
</style>
<g>
	<line class="st0" x1="80" y1="46.5" x2="80" y2="40"/>
	<line class="st0" x1="70.8" y1="50.3" x2="66.2" y2="45.7"/>
	<line class="st0" x1="89.2" y1="50.3" x2="93.8" y2="45.7"/>
	<line class="st0" x1="93" y1="59.6" x2="99.6" y2="59.6"/>
	<line class="st0" x1="60.4" y1="59.6" x2="67" y2="59.6"/>
</g>
<g>
	<path class="st0" d="M123.9,134.3l-4.9,13c-0.5,1.6-0.9,4.2-0.9,5.8v6.9H77v-7.6c0-1.8-0.3-3.6-1.6-4.8l-7.2-6.6
		c-2.1-2.1-3.8-4.6-4.9-7.3l-2.2-4.9c-1.3-3-3.6-5.6-6.4-7.3l-5.3-3.6c-2.2-1.5-3.3-3.5-3.3-6.4c0-3.2,2.6-6.5,6.5-6.5
		c1.4,0,2.9,0.3,4.1,0.8l0,0c4.8,2,9.2,5,12.9,8.8l3.6,4.5v-15.7V59.9c0-3.4,3.3-6.8,7-6.8c3.8,0,7,3.1,7,7.3v23.5
		c1.3-1.6,3.8-2.6,6.1-2.6c3.9,0,7.1,3.2,7.1,7.1l0.1,1.4c1.2-2.2,3.5-3.6,6.2-3.6c3.6,0,6.6,2.8,7,6.3c0,0,0,0,0,0
		c0.9-0.4,1.9-0.6,2.9-0.6c3.4,0,6.3,2.5,6.9,5.7c0,0,2.7,17.7,2.7,23.5C126,128.1,125.2,130.4,123.9,134.3z"/>
	<line class="st0" x1="87.3" y1="103.3" x2="87" y2="83.9"/>
	<line class="st0" x1="100.7" y1="103.8" x2="100.2" y2="89.7"/>
	<line class="st0" x1="114.1" y1="107" x2="113.4" y2="92.4"/>
	<line class="st0" x1="113.4" y1="92.4" x2="113.4" y2="92.4"/>
</g>
</svg>
