<svg xmlns="http://www.w3.org/2000/svg" viewBox="0 0 122 24">
<path fill="#FFFFFF" d="M97.1,6.9h4.9v16.5h-4l-0.3-2.3h-0.1c-1.4,1.7-3,2.7-5.3,2.7c-3.6,0-5.1-2.5-5.1-6.7V6.9h4.9v9.6
	c0,2.4,0.6,3.1,2.1,3.1c1.3,0,2-0.6,3-1.8v-11H97.1z M59,13.5c-1.7-0.6-3.3-1-3.3-2.1c0-0.8,0.6-1.4,1.9-1.4c1.1,0,2.3,0.6,3.4,1.4
	l2.2-3c-1.4-1-3.3-2.1-5.8-2.1c-3.8,0-6.3,2.1-6.3,5.3c0,2.7,2.3,4.1,4.4,4.9c1.7,0.6,3.3,1.1,3.3,2.3c0,0.8-0.6,1.4-2.1,1.4
	c-1.4,0-2.7-0.6-4.3-1.8l-2.2,3C52,23,54.5,24,56.7,24c4.4,0,6.8-2.3,6.8-5.3C63.4,15.5,61.1,14.3,59,13.5z M79.3,10h-7.5V1.7h-4.9
	v21.7h4.9v-9h7.5v9.1h4.9V1.7h-4.9V10z M121.2,14.9c0,5.7-3.3,9-7,9c-1.4,0-3-0.7-4.3-2.2h-0.1l-0.4,1.8h-3.8V0h4.9v5.7l-0.1,2.5
	c1.3-1.1,2.8-1.9,4.4-1.9C118.6,6.5,121.2,9.7,121.2,14.9z M116.2,15c0-3-1-4.5-2.8-4.5c-1,0-1.9,0.4-2.8,1.4v6.8
	c0.8,0.7,1.8,1,2.6,1C114.8,19.8,116.2,18.3,116.2,15z M43.9,13.5c-1.7-0.6-3.3-1-3.3-2.1c0-0.8,0.6-1.4,1.9-1.4
	c1.1,0,2.3,0.6,3.4,1.4l2.2-3c-1.4-1-3.3-2.1-5.8-2.1c-3.8,0-6.3,2.1-6.3,5.3c0,2.7,2.3,4.1,4.4,4.9c1.7,0.6,3.3,1.1,3.3,2.3
	c0,0.8-0.6,1.4-2.1,1.4c-1.4,0-2.7-0.6-4.3-1.8l-2.2,3c1.7,1.4,4.1,2.3,6.4,2.3c4.4,0,6.8-2.3,6.8-5.3
	C48.2,15.5,45.9,14.3,43.9,13.5z M16.1,8.7c0,5.1-3.8,7.3-8.5,7.3H4.9v7.4H0V1.7h7.4C12.2,1.7,16.1,3.3,16.1,8.7z M11.2,8.7
	c0-2.3-1.4-3.1-4.1-3.1H4.9v6.6h2.4C10,12.1,11.2,10.9,11.2,8.7z M32.9,13.5v8.7c0,0.6-0.6,1.3-1.3,1.3H19.1c-0.6,0-1.3-0.6-1.3-1.3
	v-8.7c0-0.6,0.6-1.3,1.3-1.3h9.6V9.8c0-1.6-1.4-2.8-3.3-2.8c-1.7,0-3,1-3.3,2.4c0,0.2-0.2,0.4-0.6,0.4h-1.7c-0.3,0-0.6-0.2-0.6-0.6
	c0.5-2.6,3-4.8,6.1-4.8c3.3,0,6,2.4,6,5.4v2.4h0.3C32.4,12.3,32.9,12.8,32.9,13.5z M27.2,17.1c0-1-0.7-1.7-1.7-1.7s-1.7,0.7-1.7,1.7
	c0,0.6,0.3,1,0.7,1.4v2c0,0.3,0.2,0.6,0.6,0.6h1c0.3,0,0.6-0.2,0.6-0.6v-2C26.9,18.2,27.2,17.7,27.2,17.1z"/>
</svg>
