<svg class="icon--store" xmlns="http://www.w3.org/2000/svg" viewBox="0 0 135 40"><switch><g><path d="M23 19.1l3.2-3.2c-1.7-1-12.6-7-13.3-7.4-.1-.1-.3-.1-.4-.2L23 19.1zM11.6 8.4c-.3.2-.5.6-.5 1.2v19.9c0 .6.2 1 .5 1.2l10.9-11.2L11.6 8.4zM23 20L12.6 30.8c.1 0 .2-.1.3-.1.7-.4 8-4.5 13.2-7.4L23 20zm8.2-1.4c-.3-.2-2.1-1.2-4.4-2.5l-3.3 3.4 3.2 3.3c2.5-1.4 4.3-2.4 4.5-2.5.6-.3 1.1-1 0-1.7zm16.2-7.3c0 .8-.2 1.5-.7 2-.6.6-1.3.9-2.2.9-.9 0-1.6-.3-2.2-.9-.6-.6-.9-1.3-.9-2.2 0-.9.3-1.6.9-2.2.5-.6 1.3-.9 2.1-.9.4 0 .8.1 1.2.2.4.2.7.4.9.7l-.5.5c-.4-.5-.9-.7-1.6-.7-.6 0-1.2.2-1.6.7-.5.4-.7 1-.7 1.7s.2 1.3.7 1.7c.5.4 1 .7 1.6.7.7 0 1.2-.2 1.7-.7.3-.3.5-.7.5-1.2h-2.2v-.7h2.9c.1.1.1.3.1.4zM52 8.8h-2.7v1.9h2.5v.7h-2.5v1.9H52v.7h-3.5V8H52v.8zm3.3 5.3h-.8V8.8h-1.7v-.7H57v.7h-1.7v5.3zm4.6 0v-6h.8v6h-.8zm4.2 0h-.8V8.8h-1.7v-.7h4.1v.7H64v5.3zm9.5-.8c-.6.6-1.3.9-2.2.9-.9 0-1.6-.3-2.2-.9-.6-.6-.9-1.3-.9-2.2 0-.9.3-1.6.9-2.2.6-.6 1.4-.9 2.2-.9.9 0 1.6.3 2.2.9.6.6.9 1.3.9 2.2 0 .9-.3 1.6-.9 2.2zm-3.8-.5c.4.4 1 .7 1.6.7.6 0 1.2-.2 1.6-.7.4-.4.7-1 .7-1.7s-.2-1.3-.7-1.7c-.4-.4-1-.7-1.6-.7-.6 0-1.2.2-1.6.7-.4.4-.7 1-.7 1.7s.3 1.2.7 1.7zm5.8 1.3v-6h.9l2.9 4.6V8.1h.8v6h-.8l-3.1-4.9V14h-.7zm-7.4 7.7c-2.4 0-4.3 1.8-4.3 4.2 0 2.4 1.9 4.2 4.3 4.2s4.3-1.8 4.3-4.2c-.1-2.5-2-4.2-4.3-4.2zm0 6.7c-1.3 0-2.4-1.1-2.4-2.6s1.1-2.6 2.4-2.6c1.3 0 2.4 1 2.4 2.6s-1.1 2.6-2.4 2.6zm-9.4-6.7c-2.4 0-4.3 1.8-4.3 4.2 0 2.4 1.9 4.2 4.3 4.2s4.3-1.8 4.3-4.2c0-2.5-1.9-4.2-4.3-4.2zm0 6.7c-1.3 0-2.4-1.1-2.4-2.6s1.1-2.6 2.4-2.6c1.3 0 2.4 1 2.4 2.6s-1.1 2.6-2.4 2.6zM47.7 23v1.8H52c-.1 1-.5 1.7-1 2.3-.6.6-1.6 1.3-3.3 1.3-2.7 0-4.7-2.1-4.7-4.8 0-2.6 2.1-4.8 4.7-4.8 1.4 0 2.5.6 3.3 1.3l1.3-1.3c-1.1-1-2.5-1.8-4.5-1.8-3.7 0-6.7 2.9-6.7 6.6 0 3.6 3.1 6.6 6.7 6.6 2 0 3.5-.6 4.6-1.8 1.2-1.2 1.6-2.8 1.6-4.2 0-.4 0-.8-.1-1.1h-6.2zm45.4 1.4c-.4-.9-1.4-2.7-3.7-2.7-2.2 0-4 1.7-4 4.2 0 2.4 1.8 4.2 4.2 4.2 2 0 3.1-1.2 3.6-1.9l-1.5-1c-.5.7-1.1 1.2-2.1 1.2s-1.6-.4-2.1-1.3l5.7-2.3-.1-.4zm-5.8 1.4c0-1.6 1.3-2.5 2.2-2.5.7 0 1.4.4 1.6.9l-3.8 1.6zm-4.6 4.1h1.9V17.5h-1.9v12.4zm-3.1-7.2c-.5-.5-1.3-.9-2.3-.9-2.1 0-4.1 1.9-4.1 4.2 0 2.4 2 4.2 4.1 4.2 1 0 1.8-.4 2.2-1h.1v.6c0 1.6-.9 2.5-2.3 2.5-1.1 0-1.9-.8-2.1-1.5l-1.6.7c.5 1.1 1.7 2.5 3.8 2.5 2.2 0 4.1-1.3 4.1-4.4V22h-1.8v.7zm-2.1 5.8c-1.3 0-2.4-1.1-2.4-2.5 0-1.5 1.1-2.6 2.4-2.6 1.3 0 2.3 1.1 2.3 2.6s-1 2.5-2.3 2.5zm24.4-11h-4.5v12.4h1.9v-4.7h2.6c2.1 0 4.1-1.5 4.1-3.9 0-2.3-2-3.8-4.1-3.8zm.1 6h-2.7v-4.3h2.7c1.4 0 2.2 1.1 2.2 2.1s-.8 2.2-2.2 2.2zm11.5-1.8c-1.4 0-2.8.6-3.3 1.9l1.7.7c.4-.7 1-.9 1.7-.9 1 0 2 .6 2 1.6v.1c-.3-.2-1.1-.5-2-.5-1.8 0-3.6 1-3.6 2.8 0 1.7 1.5 2.7 3.1 2.7 1.3 0 2-.6 2.4-1.2h.1v1h1.8v-4.8c-.1-2.1-1.7-3.4-3.9-3.4zm-.2 6.8c-.6 0-1.5-.3-1.5-1.1 0-1 1.1-1.3 2-1.3.8 0 1.2.2 1.7.4-.1 1.2-1.1 2-2.2 2zm10.6-6.5l-2.1 5.4h-.1l-2.2-5.4h-2l3.3 7.5-1.9 4.2h2L126 22h-2.1zm-16.8 7.9h1.9V17.5h-1.9v12.4z"/>
<path class="icon--store-border" clip-rule="evenodd" stroke-miterlimit="10" d="M4.5.5h125.9c2.2 0 4 1.7 4 3.9v31.2c0 2.2-1.8 3.9-4 3.9H4.5c-2.2 0-4-1.7-4-3.9V4.4C.5 2.2 2.3.5 4.5.5z"/></g></switch></svg>
