<svg xmlns="http://www.w3.org/2000/svg" viewBox="0 0 135 40"><switch><g><path class="icon--store" d="M26.1 12.2c2.9 0 4.7 2.7 4.7 2.7S28 16.5 28 19.7c0 3.9 3.5 5 3.5 5s-2.8 6.5-5.9 6.5c-1.7 0-1.9-1-4.2-1-2 0-2.7 1-4.2 1-2.9 0-6.7-6.3-6.7-11.5 0-5.4 3.8-7.5 6.2-7.5 2.1 0 3 1.2 4.7 1.2 1.5.1 2.6-1.2 4.7-1.2zm-.5-5.4c.4 2.6-2 5.9-4.9 5.8-.4-3.4 2.7-5.7 4.9-5.8zM44 14.6c.4.1 1 .1 1.6.1 1.3 0 2.3-.3 3-1 .6-.6 1-1.5 1-2.6s-.3-1.9-.9-2.4c-.6-.5-1.5-.8-2.7-.8-.7 0-1.3.1-1.8.1v6.6zm.9-5.9c.2-.1.6-.1 1-.1 1.8 0 2.7 1 2.7 2.6 0 1.8-1 2.9-2.9 2.9h-.9V8.7zm7.7 1c-1.3 0-2.4.9-2.4 2.6 0 1.5 1 2.5 2.3 2.5 1.2 0 2.4-.8 2.4-2.6 0-1.5-.9-2.5-2.3-2.5zm0 .7c1 0 1.4 1 1.4 1.9 0 1.1-.6 1.9-1.5 1.9s-1.5-.8-1.5-1.9c.1-1 .5-1.9 1.6-1.9zm2.8-.6l1.5 4.8h.8l.8-2.3c.2-.5.3-1 .4-1.6.1.6.3 1 .4 1.6l.7 2.3h.8l1.6-4.8h-.9l-.7 2.4c-.2.6-.3 1.1-.4 1.6-.1-.5-.2-1-.4-1.6l-.7-2.4h-.7l-.8 2.5c-.2.5-.3 1-.4 1.5-.1-.5-.2-1-.4-1.5l-.6-2.5h-1zm7.6 4.9h.9v-2.9c0-.1 0-.3.1-.4.1-.5.6-.9 1.2-.9.8 0 1.1.6 1.1 1.4v2.8h.9v-2.9c0-1.7-1-2.1-1.7-2.1-.8 0-1.4.4-1.6.9l-.1-.8H63v4.9zm5.1 0h.9V7.6h-.9v7.1zm4.4-5c-1.3 0-2.4.9-2.4 2.6 0 1.5 1 2.5 2.3 2.5 1.2 0 2.4-.8 2.4-2.6.1-1.5-.9-2.5-2.3-2.5zm0 .7c1 0 1.4 1 1.4 1.9 0 1.1-.6 1.9-1.5 1.9s-1.5-.8-1.5-1.9c.1-1 .6-1.9 1.6-1.9zm7.4 4.3c-.1-.3-.1-.7-.1-1.2v-1.8c0-1-.4-2-1.8-2-.6 0-1.2.2-1.6.4l.2.6c.3-.2.8-.4 1.3-.4 1 0 1.1.7 1.1 1.1v.1c-1.9 0-2.9.6-2.9 1.8 0 .7.5 1.4 1.5 1.4.7 0 1.2-.3 1.5-.7l.1.6h.7zM79 13c0 .1 0 .2-.1.3-.1.4-.5.8-1.2.8-.4 0-.8-.3-.8-.8 0-.9 1.1-1.1 2-1.1v.8zm6-5.4v2.9c-.2-.4-.7-.7-1.5-.7-1.2 0-2.2 1-2.2 2.6 0 1.5.9 2.5 2.1 2.5.8 0 1.4-.4 1.6-.9v.8h.8V7.6H85zm0 5v.4c-.2.7-.7 1-1.3 1-.9 0-1.4-.8-1.4-1.8 0-1.1.5-1.9 1.4-1.9.7 0 1.1.5 1.3 1v1.3zm6.5-2.9c-1.3 0-2.4.9-2.4 2.6 0 1.5 1 2.5 2.3 2.5 1.2 0 2.4-.8 2.4-2.6 0-1.5-.9-2.5-2.3-2.5zm0 .7c1 0 1.4 1 1.4 1.9 0 1.1-.6 1.9-1.5 1.9s-1.5-.8-1.5-1.9c.1-1 .5-1.9 1.6-1.9zm3.4 4.3h.9v-2.9c0-.1 0-.3.1-.4.1-.5.6-.9 1.2-.9.8 0 1.1.6 1.1 1.4v2.8h.9v-2.9c0-1.7-1-2.1-1.7-2.1-.8 0-1.4.4-1.6.9v-.8H95v4.9zm8.3-6v1.2h-.7v.7h.7v2.6c0 .6.1 1 .3 1.3.2.2.5.4.9.4.3 0 .6-.1.8-.1v-.7c-.1 0-.3.1-.5.1-.5 0-.7-.3-.7-.9v-2.6h1.3v-.9H104V8.4l-.8.3zm2.9 6h.9v-2.9c0-.2 0-.3.1-.4.2-.5.6-.9 1.2-.9.8 0 1.1.7 1.1 1.4v2.8h.9v-2.9c0-1.7-1-2.1-1.7-2.1-.3 0-.6.1-.9.2-.3.1-.5.4-.6.6v-3h-.9v7.2zm10.1-2.3V12c0-.9-.4-2.3-2-2.3-1.4 0-2.3 1.1-2.3 2.6s.9 2.4 2.4 2.4c.8 0 1.3-.2 1.6-.3l-.2-.6c-.3.1-.7.2-1.3.2-.9 0-1.6-.5-1.7-1.7h3.5zm-3.4-.6c.1-.6.5-1.4 1.3-1.4 1 0 1.2.9 1.2 1.4h-2.5zm-62.6 15l1.3 3.8h1.7l-4.1-12.1h-1.9L43 30.7h1.6l1.3-3.8h4.3zm-4-1.2l1.2-3.5c.2-.7.4-1.5.6-2.2.2.7.4 1.4.6 2.2l1.2 3.5h-3.6zm8.5 8.6h1.6v-4.7c.5.9 1.5 1.4 2.7 1.4 2.1 0 4-1.5 4-4.7 0-2.6-1.6-4.4-3.7-4.4-1.4 0-2.4.6-3.1 1.7l-.1-1.5h-1.4c0 .8.1 1.7.1 2.8v9.4zm1.6-8.6c0-.2.1-.5.1-.6.3-1.2 1.3-2 2.4-2 1.7 0 2.6 1.5 2.6 3.2 0 2-1 3.4-2.6 3.4-1.1 0-2.1-.8-2.4-1.9 0-.2-.1-.4-.1-.6v-1.5zm9.1 8.6H67v-4.7c.5.9 1.5 1.4 2.7 1.4 2.1 0 4-1.5 4-4.7 0-2.6-1.6-4.4-3.7-4.4-1.4 0-2.4.6-3.1 1.7l-.2-1.5h-1.4c0 .8.1 1.7.1 2.8v9.4zm1.6-8.6c0-.2.1-.5.1-.6.3-1.2 1.3-2 2.4-2 1.7 0 2.6 1.5 2.6 3.2 0 2-1 3.4-2.6 3.4-1.1 0-2.1-.8-2.4-1.9 0-.2-.1-.4-.1-.6v-1.5zm11.9 4.5c.6.4 1.9.8 3.1.8 2.9 0 4.2-1.6 4.2-3.5 0-1.8-1-2.8-3.1-3.6-1.7-.6-2.4-1.2-2.4-2.3 0-.8.6-1.8 2.3-1.8 1.1 0 1.9.4 2.3.6l.4-1.3c-.5-.3-1.4-.6-2.7-.6-2.4 0-3.9 1.4-3.9 3.3 0 1.7 1.2 2.7 3.2 3.4 1.6.6 2.3 1.3 2.3 2.4 0 1.2-.9 2.1-2.5 2.1-1.1 0-2.1-.4-2.8-.8l-.4 1.3zm9.9-10.2V22h-1.4v1.2h1.4V28c0 1 .2 1.8.6 2.3.4.4 1 .7 1.7.7.6 0 1.1-.1 1.4-.2l-.1-1.2c-.2.1-.5.1-.9.1-.9 0-1.2-.6-1.2-1.7v-4.7h2.3V22h-2.3v-2.5l-1.5.4zm8.9 1.9c-2.4 0-4.3 1.7-4.3 4.6 0 2.8 1.8 4.5 4.2 4.5 2.1 0 4.3-1.4 4.3-4.6 0-2.7-1.7-4.5-4.2-4.5zm0 1.1c1.9 0 2.6 1.9 2.6 3.3 0 2-1.1 3.4-2.6 3.4s-2.6-1.4-2.6-3.3c-.1-1.6.7-3.4 2.6-3.4zm6.2 7.8h1.6V26c0-.3 0-.5.1-.7.2-1.2 1-2 2.1-2 .2 0 .4 0 .5.1v-1.5c-.1 0-.3-.1-.5-.1-1.1 0-2 .7-2.4 1.9h-.1l-.1-1.7h-1.4c.1.8.1 1.7.1 2.7v6zm12.9-4.1c0-.2.1-.4.1-.7 0-1.6-.8-4.1-3.6-4.1-2.5 0-4.1 2.1-4.1 4.7s1.6 4.4 4.3 4.4c1.4 0 2.3-.3 2.9-.5l-.3-1.1c-.6.3-1.3.5-2.4.5-1.6 0-3-.9-3-3h6.1zm-6.1-1.1c.1-1.1.8-2.6 2.4-2.6 1.8 0 2.2 1.6 2.2 2.6h-4.6z"/>
<path class="icon--store-border" clip-rule="evenodd" stroke-miterlimit="10" d="M4.5.5h125.9c2.2 0 4 1.7 4 3.9v31.2c0 2.2-1.8 3.9-4 3.9H4.5c-2.2 0-4-1.7-4-3.9V4.4C.5 2.2 2.3.5 4.5.5z"/></g></switch></svg>
