<svg xmlns="http://www.w3.org/2000/svg" viewBox="0 0 34 20"><switch><g><title>button_logo</title><path fill="#FFF" d="M31.2 20h-28c-1.7 0-3-1.3-3-3V3c0-1.7 1.3-3 3-3h27.4C32.5 0 34 1.6 34 3.6c0 1.3-.8 2.5-1.9 3L34 16.8c.2 1.6-.9 3-2.5 3.1-.1.1-.2.1-.3.1zM27 6h-1c-1.1 0-2 .9-2 2v1h-8.3c-.8-2.8-3.8-4.4-6.5-3.5S4.8 9.2 5.6 12s3.8 4.4 6.5 3.5c1.7-.5 3-1.8 3.5-3.5H27V6zm-1 1c-.6 0-1 .4-1 1v2H12.1V8.3c0-.2-.1-.3-.2-.3h-.2l-3.6 2.3c-.1.1-.2.3-.1.4l.1.1 3.6 2.2c.1.1.3 0 .4-.1V11H26V7z"/></g></switch></svg>