<svg id="Layer_1" xmlns="http://www.w3.org/2000/svg" viewBox="0 0 177 177"><style>.st0{fill:none;stroke:#fff;stroke-width:2;stroke-linecap:round;stroke-linejoin:round;stroke-miterlimit:10}</style><path class="st0" d="M80 46.5V40M70.8 50.3l-4.6-4.6M89.2 50.3l4.6-4.6M93 59.6h6.6M60.4 59.6H67"/><g><path class="st0" d="M123.9 134.3l-4.9 13c-.5 1.6-.9 4.2-.9 5.8v6.9H77v-7.6c0-1.8-.3-3.6-1.6-4.8l-7.2-6.6c-2.1-2.1-3.8-4.6-4.9-7.3l-2.2-4.9c-1.3-3-3.6-5.6-6.4-7.3l-5.3-3.6c-2.2-1.5-3.3-3.5-3.3-6.4 0-3.2 2.6-6.5 6.5-6.5 1.4 0 2.9.3 4.1.8 4.8 2 9.2 5 12.9 8.8l3.6 4.5V59.9c0-3.4 3.3-6.8 7-6.8 3.8 0 7 3.1 7 7.3v23.5c1.3-1.6 3.8-2.6 6.1-2.6 3.9 0 7.1 3.2 7.1 7.1l.1 1.4c1.2-2.2 3.5-3.6 6.2-3.6 3.6 0 6.6 2.8 7 6.3.9-.4 1.9-.6 2.9-.6 3.4 0 6.3 2.5 6.9 5.7 0 0 2.7 17.7 2.7 23.5-.2 7-1 9.3-2.3 13.2zM87.3 103.3L87 83.9M100.7 103.8l-.5-14.1M114.1 107l-.7-14.6M113.4 92.4"/></g></svg>